<?xml version="1.0" encoding="UTF-8"?>
<svg id="Layer_1" xmlns="http://www.w3.org/2000/svg" version="1.1" viewBox="0 0 655.5 236.1">
  <!-- Generator: Adobe Illustrator 30.0.0, SVG Export Plug-In . SVG Version: 2.1.1 Build 123)  -->
  <defs>
    <style>
      .st0 {
        fill: #231f20;
      }

      .st1 {
        fill: #603913;
        fill-rule: evenodd;
      }

      .st2 {
        fill: #a97c50;
      }
    </style>
  </defs>
  <path class="st0" d="M243.6,633.8c-9.4,0-16.9-2.6-22.5-7.8-5.6-5.2-8.5-12.8-8.5-22.8v-9.5c0-9.9,2.8-17.5,8.5-22.7,5.6-5.2,13.1-7.8,22.5-7.8s17,2.6,22.6,7.8c5.6,5.2,8.5,12.8,8.5,22.7v9.5c0,10-2.8,17.6-8.5,22.8-5.6,5.2-13.2,7.8-22.6,7.8ZM243.6,577.5c-4.8,0-8.4,1.5-10.6,4.6-2.3,3-3.4,7.1-3.4,12.2v8.5c0,5.1,1.1,9.2,3.4,12.2,2.3,3,5.8,4.6,10.6,4.6s8.5-1.5,10.8-4.6c2.3-3,3.5-7.1,3.5-12.2v-8.5c0-5.1-1.2-9.2-3.5-12.2-2.3-3-5.9-4.6-10.8-4.6Z"/>
  <g>
    <g>
      <path class="st1" d="M165.7,176.7c-36.7-10.1-58.7-41.2-49-69.5,2.3-6.6,6.1-12.5,11-17.5,13.6,60.4,106.4,19.4,114,109.2-2.4-12.4-28.2-17.6-28.2-17.6-14.7-3.8-34.1-.8-47.8-4.6h0ZM137.2,154s0,0,.1,0h0s0,0,0,0h0Z"/>
      <path class="st1" d="M238.7,161.3c-13.7-47-94.4-23.2-100.1-80,13.7-8.3,31.8-11.9,50.4-9.4,0,0,.2,0,.2,0,3.9.5,7.7,1.3,11.6,2.4,24.9,6.8,43,23.4,49.1,42.1,0,0,.1.4.1.4,2.7,8.8,2.8,18-.2,26.9-2.3,6.7-6.1,12.6-11.1,17.6h0ZM179.9,111.4s0,0,.1,0h0s0,0,0,0h0ZM233.5,143.5s0,0,.1,0h0s0,0,0,0h0Z"/>
    </g>
    <g>
      <path class="st2" d="M88.9,179l-32.8-47.3-16.1,18v29.3h-21.3V41.8c0-11.7,9.5-21.3,21.3-21.3h0v101.8l44.1-50.1h24.5l-38.4,43.4,45.4,63.4h-26.7Z"/>
      <path class="st2" d="M330.7,181.1c-7.8,0-14.4-1.6-19.8-4.9-5.4-3.3-9.5-7.8-12.4-13.8v59.9h-21.3V93.5c0-11.7,9.5-21.3,21.3-21.3h0v16.7c2.9-6.4,7.1-11.1,12.6-14.2,5.5-3.1,12-4.7,19.5-4.7s14.8,1.8,21.1,5.3c6.2,3.5,11.1,8.9,14.8,16,3.6,7.1,5.4,15.9,5.4,26.5v15.6c0,10.4-1.8,19.2-5.4,26.4-3.6,7.2-8.5,12.5-14.8,16.1-6.2,3.5-13.2,5.3-21.1,5.3ZM325.1,162.7c8.5,0,14.9-2.7,19-8.1,4.1-5.4,6.2-12.7,6.2-21.8v-14.3c0-9.1-2.1-16.4-6.2-21.8-4.1-5.4-10.6-8.1-19.4-8.1s-14.5,2.6-19.1,7.7c-4.6,5.1-6.9,12.7-6.9,22.7v14.3c0,9.1,2.4,16.3,7.2,21.6,4.8,5.3,11.2,7.9,19.3,7.9Z"/>
      <path class="st2" d="M406.7,52.6c-4.1,0-7.4-1.2-10.1-3.6-2.7-2.4-4-5.5-4-9.2s1.3-6.8,4-9.2c2.7-2.4,6-3.6,10.1-3.6s7.6,1.2,10.2,3.6c2.6,2.4,3.9,5.5,3.9,9.2s-1.3,6.8-3.9,9.2c-2.6,2.4-6,3.6-10.2,3.6ZM396,179v-106.8h21.3v106.8h-21.3Z"/>
      <path class="st2" d="M466.8,149.2c0,4.8.9,8,2.6,9.8,1.7,1.7,4.7,2.6,8.9,2.6h3.3v18.4h-4.1c-7.5,0-13.7-.9-18.4-2.6-4.8-1.7-8.2-4.8-10.4-9.1-2.2-4.3-3.3-10.5-3.3-18.4V20.5h21.5v128.7Z"/>
      <path class="st2" d="M510.8,52.6c-4.1,0-7.4-1.2-10.1-3.6-2.7-2.4-4-5.5-4-9.2s1.3-6.8,4-9.2c2.7-2.4,6-3.6,10.1-3.6s7.6,1.2,10.2,3.6c2.6,2.4,3.9,5.5,3.9,9.2s-1.3,6.8-3.9,9.2c-2.6,2.4-6,3.6-10.2,3.6ZM500.2,179v-106.8h21.3v106.8h-21.3Z"/>
      <path class="st2" d="M571.8,119.1v59.9h-21.3V20.5h21.3v71.2c3.6-7.4,8.3-12.8,14.1-16.4,5.8-3.5,12.4-5.3,19.8-5.3,11.3,0,20,3.1,26.3,9.4,6.2,6.3,9.3,15.8,9.3,28.5v71h-21.5v-65.8c0-8.4-1.7-14.6-5.1-18.7-3.4-4-9-6.1-16.8-6.1s-8.9,1.2-12.9,3.5c-4,2.3-7.2,5.8-9.6,10.3s-3.6,10.2-3.6,16.8Z"/>
    </g>
  </g>
</svg>